<svg width="32" height="32" viewBox="0 0 32 32" fill="none" xmlns="http://www.w3.org/2000/svg">
  <!-- Background circle with gradient -->
  <circle cx="16" cy="16" r="16" fill="url(#gradient)"/>
  
  <!-- Bear head -->
  <circle cx="16" cy="16" r="12" fill="#8B4513"/>
  
  <!-- Bear ears -->
  <circle cx="12" cy="10" r="4" fill="#8B4513"/>
  <circle cx="20" cy="10" r="4" fill="#8B4513"/>
  
  <!-- Inner ear highlights -->
  <circle cx="12" cy="10" r="2" fill="#D2691E"/>
  <circle cx="20" cy="10" r="2" fill="#D2691E"/>
  
  <!-- Bear eyes - confused/thinking expression -->
  <circle cx="14" cy="15" r="1.5" fill="white"/>
  <circle cx="18" cy="15" r="1.5" fill="white"/>
  <circle cx="14" cy="15" r="0.8" fill="black"/>
  <circle cx="18" cy="15" r="0.8" fill="black"/>
  
  <!-- Confused eyebrows -->
  <path d="M 12 13 Q 14 12 16 13" stroke="black" stroke-width="1" fill="none"/>
  <path d="M 16 13 Q 18 12 20 13" stroke="black" stroke-width="1" fill="none"/>
  
  <!-- Bear nose -->
  <ellipse cx="16" cy="18" rx="1" ry="0.8" fill="black"/>
  
  <!-- Confused/thinking mouth -->
  <path d="M 14 20 Q 16 21 18 20" stroke="black" stroke-width="1" fill="none"/>
  
  <!-- Question mark bubble -->
  <circle cx="24" cy="8" r="6" fill="white" opacity="0.9"/>
  <text x="24" y="11" font-family="Arial, sans-serif" font-size="8" font-weight="bold" text-anchor="middle" fill="#ff6b35">?</text>
  
  <!-- Gradient definition -->
  <defs>
    <linearGradient id="gradient" x1="0%" y1="0%" x2="100%" y2="100%">
      <stop offset="0%" style="stop-color:#ff6b35"/>
      <stop offset="100%" style="stop-color:#f7931e"/>
    </linearGradient>
  </defs>
</svg>
